<svg id="SvgjsSvg1016" width="288" height="288" xmlns="http://www.w3.org/2000/svg" version="1.1" xmlns:xlink="http://www.w3.org/1999/xlink" xmlns:svgjs="http://svgjs.com/svgjs"><defs id="SvgjsDefs1017"></defs><g id="SvgjsG1018"><svg xmlns="http://www.w3.org/2000/svg" enable-background="new 0 0 64 64" viewBox="0 0 64 64" width="288" height="288"><path fill="#461351" d="M58.395,44.79h-0.281V10.899c0-1.6-1.299-2.909-2.909-2.909H8.795c-1.61,0-2.909,1.309-2.909,2.909V44.79
		H5.605C2.511,44.79,0,47.311,0,50.405s2.511,5.605,5.605,5.605h52.79c3.093,0,5.605-2.512,5.605-5.605S61.488,44.79,58.395,44.79z
		 M7.825,10.899c0-0.533,0.436-0.97,0.97-0.97h46.41c0.533,0,0.97,0.436,0.97,0.97V44.79H7.825V10.899z M58.395,54.07H5.605
		c-2.017,0-3.665-1.649-3.665-3.666c0-2.027,1.648-3.675,3.665-3.675h52.79c2.017,0,3.665,1.648,3.665,3.675
		C62.061,52.422,60.412,54.07,58.395,54.07z" class="color133851 svgShape"></path><path fill="#f8ecfb" d="M55.205,9.93H8.795c-0.533,0-0.97,0.436-0.97,0.97V44.79h48.349V10.899
		C56.175,10.366,55.738,9.93,55.205,9.93z M23.835,36.955H13.818c-0.533,0-0.97-0.427-0.97-0.97c0-0.533,0.436-0.97,0.97-0.97
		h10.017c0.543,0,0.97,0.436,0.97,0.97C24.805,36.528,24.378,36.955,23.835,36.955z M31.854,30.371H13.818
		c-0.533,0-0.97-0.436-0.97-0.97c0-0.533,0.436-0.97,0.97-0.97h18.036c0.543,0,0.97,0.436,0.97,0.97
		C32.824,29.934,32.398,30.371,31.854,30.371z M46.138,39.176c-0.194,0.194-0.446,0.291-0.688,0.291
		c-0.252,0-0.495-0.097-0.688-0.291l-5.673-5.673l0.815,3.792c0.116,0.524-0.223,1.037-0.747,1.144
		c-0.068,0.019-0.136,0.029-0.204,0.029c-0.446,0-0.844-0.31-0.941-0.766l-1.513-7.001c-0.01-0.058-0.01-0.116-0.01-0.165
		c0-0.019-0.01-0.039-0.01-0.058c0-0.107,0.029-0.213,0.068-0.31c0.01-0.029,0.019-0.049,0.029-0.068
		c0.048-0.107,0.107-0.204,0.184-0.291c0.087-0.078,0.184-0.136,0.291-0.184c0.019-0.01,0.039-0.029,0.068-0.039
		c0.107-0.029,0.204-0.058,0.32-0.058c0.01,0,0.029,0.01,0.049,0.01c0.049,0,0.107,0,0.165,0.01l7.001,1.503
		c0.524,0.116,0.854,0.63,0.747,1.154c-0.116,0.524-0.64,0.863-1.154,0.747l-3.791-0.814l5.682,5.673
		C46.516,38.187,46.516,38.798,46.138,39.176z M50.182,23.787H13.818c-0.533,0-0.97-0.436-0.97-0.97c0-0.533,0.436-0.97,0.97-0.97
		h36.364c0.533,0,0.97,0.436,0.97,0.97C51.151,23.35,50.715,23.787,50.182,23.787z M50.182,17.202H13.818
		c-0.533,0-0.97-0.436-0.97-0.97c0-0.543,0.436-0.97,0.97-0.97h36.364c0.533,0,0.97,0.427,0.97,0.97
		C51.151,16.766,50.715,17.202,50.182,17.202z" class="colorECF3FB svgShape"></path><path fill="#ddcee0" d="M56.172,10.9v33.89h-2.31V13.21c0-0.53-0.44-0.97-0.97-0.97H7.822V10.9c0-0.53,0.44-0.97,0.97-0.97h46.41
		C55.742,9.931,56.172,10.37,56.172,10.9z" class="colorCED6E0 svgShape"></path><path fill="#f0abff" d="M58.395,46.73H5.605c-2.017,0-3.665,1.648-3.665,3.675c0,2.017,1.648,3.666,3.665,3.666h52.79
		c2.017,0,3.665-1.649,3.665-3.666C62.061,48.378,60.412,46.73,58.395,46.73z M14.439,51.375H9.716c-0.543,0-0.97-0.436-0.97-0.97
		c0-0.533,0.427-0.97,0.97-0.97h4.722c0.533,0,0.97,0.437,0.97,0.97C15.408,50.938,14.972,51.375,14.439,51.375z M24.32,51.375
		h-4.732c-0.533,0-0.97-0.436-0.97-0.97c0-0.533,0.436-0.97,0.97-0.97h4.732c0.533,0,0.97,0.437,0.97,0.97
		C25.29,50.938,24.853,51.375,24.32,51.375z M34.191,51.375h-4.722c-0.533,0-0.97-0.436-0.97-0.97c0-0.533,0.436-0.97,0.97-0.97
		h4.722c0.543,0,0.97,0.437,0.97,0.97C35.161,50.938,34.734,51.375,34.191,51.375z" class="colorFFE5AB svgShape"></path><path fill="#dc99eb" d="M62.062,50.4c0,1.51-0.92,2.82-2.23,3.37c0.19-0.44,0.29-0.93,0.29-1.43c0-2.02-1.65-3.67-3.67-3.67H3.662
		c-0.5,0-0.98,0.1-1.42,0.29c0.55-1.31,1.86-2.23,3.36-2.23h52.79C60.412,46.73,62.062,48.381,62.062,50.4z" class="colorEBCE99 svgShape"></path><path fill="#461351" d="M15.408 50.405c0 .533-.436.97-.97.97H9.716c-.543 0-.97-.436-.97-.97 0-.533.427-.97.97-.97h4.722C14.972 49.435 15.408 49.872 15.408 50.405zM25.29 50.405c0 .533-.436.97-.97.97h-4.732c-.533 0-.97-.436-.97-.97 0-.533.436-.97.97-.97h4.732C24.853 49.435 25.29 49.872 25.29 50.405zM35.161 50.405c0 .533-.427.97-.97.97h-4.722c-.533 0-.97-.436-.97-.97 0-.533.436-.97.97-.97h4.722C34.734 49.435 35.161 49.872 35.161 50.405zM24.805 35.985c0 .543-.427.97-.97.97H13.818c-.533 0-.97-.427-.97-.97 0-.533.436-.97.97-.97h10.017C24.378 35.016 24.805 35.452 24.805 35.985zM51.151 16.233c0 .533-.437.97-.97.97H13.818c-.533 0-.97-.436-.97-.97 0-.543.436-.97.97-.97h36.364C50.715 15.263 51.151 15.69 51.151 16.233zM51.151 22.817c0 .533-.437.97-.97.97H13.818c-.533 0-.97-.436-.97-.97 0-.533.436-.97.97-.97h36.364C50.715 21.847 51.151 22.284 51.151 22.817zM32.824 29.401c0 .533-.427.97-.97.97H13.818c-.533 0-.97-.436-.97-.97 0-.533.436-.97.97-.97h18.036C32.398 28.431 32.824 28.868 32.824 29.401zM46.138 39.176c-.194.194-.446.291-.688.291-.252 0-.495-.097-.688-.291l-5.673-5.673.815 3.792c.116.524-.223 1.037-.747 1.144-.068.019-.136.029-.204.029-.446 0-.844-.31-.941-.766l-1.513-7.001c-.01-.058-.01-.116-.01-.165 0-.019-.01-.039-.01-.058 0-.107.029-.213.068-.31.01-.029.019-.049.029-.068.048-.107.107-.204.184-.291.087-.078.184-.136.291-.184.019-.01.039-.029.068-.039.107-.029.204-.058.32-.058.01 0 .029.01.049.01.049 0 .107 0 .165.01l7.001 1.503c.524.116.854.63.747 1.154-.116.524-.64.863-1.154.747l-3.791-.814 5.682 5.673C46.516 38.187 46.516 38.798 46.138 39.176z" class="color133851 svgShape"></path></svg></g></svg>